<?xml version="1.0" encoding="utf-8"?>
<!-- Generator: Adobe Illustrator 26.1.0, SVG Export Plug-In . SVG Version: 6.00 Build 0)  -->
<svg version="1.1" id="Layer_1" xmlns="http://www.w3.org/2000/svg" xmlns:xlink="http://www.w3.org/1999/xlink" x="0px" y="0px" width="2512"
	 viewBox="0 0 2512.2 2000" style="enable-background:new 0 0 2512.2 2000;" xml:space="preserve">
<style type="text/css">
	.st0{fill:#E3E8FF;}
	.st1{fill:#FFFFFF;}
	.st2{fill:#3E9896;}
	.st3{fill:#80C4A4;}
	.st4{fill:#FE9F73;}
	.st5{fill:#ED7163;}
	.st6{fill:#0D93B2;}
	.st7{opacity:0.5;}
	.st8{fill:#20111D;}
	.st9{fill:#F78A5E;}
	.st10{fill:#000100;}
	.st11{fill:#D0F6FC;}
	.st12{fill:#6095AB;}
	.st13{fill:#CC154A;}
	.st14{fill:#F7597F;}
	.st15{fill:none;}
	.st16{fill:#696A6A;}
	.st17{fill:#66686C;}
	.st18{fill:#27803B;}
	.st19{fill:#E9661C;}
</style>
<g>
	<g>
		<g>
			<g>
				<path class="st0" d="M2351.8,1524.8c-44.8,101.2-106.9,181.5-181.2,244.4c-85.8,72.7-187.8,122.3-298.1,154.6
					c-358.9,105-805.7,26.4-1067-38.8c-53-13.2-98.3-25.9-133.8-36.4c-59.8-17.7-116.5-44.7-167.6-80.5c-0.3-0.2-0.5-0.4-0.8-0.6
					C153.2,1521.9,4.4,1170.9,120.9,838.4c1.8-5.2,345.1-1061.1,1159-712.3c357.3,153.1,225.9,283.2,622,445.9
					c185.2,76.1,430.2,211.8,497.4,531.8C2423.3,1218,2415.2,1381.4,2351.8,1524.8z"/>
			</g>
		</g>
	</g>
</g>
<g>
	<g>
		<g>
			<g>
				<g>
					<path class="st1" d="M1421.6,850c18,12.1,37.5,21,57.8,26.6l7.5,51.6l35.6,1.4l35.6,1.4l11.4-50.9c20.7-4,40.9-11.4,59.7-22.1
						l41.8,31.2l26.2-24.2l26.2-24.2l-27.9-44.1c12.1-18,21-37.5,26.6-57.8l51.6-7.5l1.4-35.6l1.4-35.6l-50.9-11.4
						c-4-20.7-11.4-40.9-22.1-59.7l31.2-41.8l-24.2-26.2l-24.2-26.2l-44.1,27.9c-18-12.1-37.5-21-57.8-26.6l-7.5-51.6l-35.6-1.4
						l-35.6-1.4l-11.4,50.9c-20.7,4-40.9,11.4-59.7,22.1l-41.8-31.2l-26.2,24.2l-26.2,24.2l27.9,44.1c-12.1,18-21,37.5-26.6,57.8
						l-51.6,7.5l-1.4,35.6l-1.4,35.6l50.9,11.4c4,20.7,11.4,40.9,22.1,59.7l-31.2,41.8l24.2,26.2l24.2,26.2L1421.6,850z
						 M1441.1,588.1c54.3-50.2,138.9-46.9,189.1,7.3c50.2,54.3,46.9,138.9-7.3,189.1c-54.3,50.2-138.9,46.9-189.1-7.3
						C1383.5,723,1386.8,638.3,1441.1,588.1z"/>
				</g>
			</g>
		</g>
	</g>
</g>
<g>
	<g>
		<g>
			<g>
				<g>
					<path class="st1" d="M1138.5,1281.4c-17.9-10-36.9-16.7-56.5-20.3l-11.2-47.9l-33.6,1.6l-33.6,1.6L997,1265
						c-19.1,5.4-37.5,14-54.3,25.5l-41.8-26l-22.6,24.9l-22.6,24.9l29.8,39.2c-10,17.8-16.7,36.9-20.3,56.5l-47.9,11.2l1.6,33.6
						l1.6,33.6l48.7,6.6c5.4,19.1,14,37.5,25.5,54.3l-26,41.8l24.9,22.6l24.9,22.6l39.2-29.8c17.9,10,36.9,16.7,56.5,20.3l11.2,47.9
						l33.6-1.6l33.6-1.6l6.6-48.7c19.1-5.4,37.5-14,54.3-25.5l41.8,26l22.6-24.9l22.6-24.9l-29.8-39.2c10-17.9,16.7-36.9,20.3-56.5
						l47.9-11.2l-1.6-33.6l-1.6-33.6l-48.7-6.6c-5.4-19.1-14-37.5-25.5-54.3l26-41.8l-24.9-22.6l-24.9-22.6L1138.5,1281.4z
						 M1141.3,1528.9c-46.9,51.5-126.7,55.3-178.2,8.4c-51.5-46.9-55.3-126.7-8.4-178.2c46.9-51.5,126.7-55.3,178.2-8.4
						C1184.5,1397.6,1188.2,1477.4,1141.3,1528.9z"/>
				</g>
			</g>
		</g>
	</g>
</g>
<g>
	<g>
		<g>
			<g>
				<g>
					<g>
						<g>
							<path class="st2" d="M589.1,725.5c0,0-57.9-95.7-196.8-70.9C392.3,654.6,485.8,793.3,589.1,725.5z"/>
						</g>
					</g>
				</g>
			</g>
		</g>
	</g>
</g>
<g>
	<g>
		<g>
			<g>
				<g>
					<g>
						<g>
							<path class="st3" d="M679.5,750.8c0,0-17.2-191.9-250.9-258.4C428.6,492.4,468.4,777.6,679.5,750.8z"/>
						</g>
					</g>
				</g>
			</g>
		</g>
	</g>
</g>
<g>
	<path class="st4" d="M959.1,725c0,0,66.1-16.2,85.2,8.7c19.1,24.8-28,93.4-63.7,98.7C944.8,837.6,959.1,725,959.1,725z"/>
</g>
<g>
	<path class="st5" d="M772.4,1640.5c0,0,168.2-81.7,199-197c30.8-115.3-167.1-130.1-164.3-130.1c2.7,0-201,54-214.9,86.9
		c-13.9,32.9-75.1,170.1-50.4,170.2C566.5,1570.7,772.4,1640.5,772.4,1640.5z"/>
</g>
<path class="st1" d="M921.1,604.7c0-0.2-0.1-0.5-0.2-0.7c-1.9-8.3-9.7-13.9-18.2-13c-0.3,0-0.5,0.1-0.8,0.1c-0.1,0-0.2,0-0.2,0
	l-370,61.7c-0.1,0-0.2,0-0.2,0.1c-0.2,0-0.5,0.1-0.7,0.2c-8.3,1.9-13.9,9.7-13,18.2c0,0.2,0.1,0.5,0.1,0.8c0,0.1,0,0.2,0,0.2
	l128.4,769.4c1.3,8,8.9,13.4,16.9,12.1l374.3-62.4c8-1.3,13.4-8.9,12.1-16.9L921.2,604.9C921.2,604.8,921.1,604.8,921.1,604.7z"/>
<g>
	<path class="st6" d="M510.8,668.5l26.8-25.8l360.7-59.2l36.3,22.5c0,0,2.3,32.7,0.4,33.5c-1.9,0.8-419.6,75.5-420.6,69.1
		C513.2,702.2,510.8,668.5,510.8,668.5z"/>
</g>
<g class="st7">
	<g>
		<g>
			<g>
				<g>
					<path class="st1" d="M552.3,679.1c0.4,2.3-0.6,4.4-2.4,5.6c-0.6,0.4-1.4,0.7-2.2,0.9c-0.8,0.1-1.6,0.1-2.4-0.1
						c-2.1-0.5-3.8-2.3-4.1-4.5c-0.5-3.1,1.6-6,4.6-6.5C548.9,674,551.8,676.1,552.3,679.1z"/>
				</g>
			</g>
		</g>
	</g>
	<g>
		<g>
			<g>
				<g>
					<path class="st1" d="M569.5,676.3c0.4,2.3-0.6,4.4-2.4,5.6c-0.6,0.4-1.4,0.7-2.2,0.9c-0.8,0.1-1.6,0.1-2.4-0.1
						c-2.1-0.5-3.8-2.3-4.1-4.5c-0.5-3.1,1.6-6,4.6-6.5C566.1,671.1,569,673.2,569.5,676.3z"/>
				</g>
			</g>
		</g>
	</g>
	<g>
		<g>
			<g>
				<g>
					<path class="st1" d="M586.7,673.4c0.4,2.3-0.6,4.4-2.4,5.6c-0.6,0.4-1.4,0.7-2.2,0.9c-0.8,0.1-1.6,0.1-2.4-0.1
						c-2.1-0.5-3.8-2.3-4.1-4.5c-0.5-3.1,1.6-6,4.6-6.5C583.3,668.2,586.2,670.3,586.7,673.4z"/>
				</g>
			</g>
		</g>
	</g>
</g>
<g>
	<g>
		<g>
			<g>
				<g>
					<path class="st8" d="M1048.2,1366.3c2.1,12.4-6.3,24.1-18.7,26.2l-358.4,59.8c-12.4,2.1-24.1-6.3-26.2-18.7l-125.6-753
						c-2.3-13.8,7-26.9,20.9-29.2l353.2-58.9c13.8-2.3,26.9,7,29.2,20.9L1048.2,1366.3z M891.3,575.7l-354.6,59.2
						c-22.8,3.8-38.2,25.4-34.4,48.2l126.9,760.7c3.8,22.8,25.4,38.2,48.2,34.4L1032,1419c22.8-3.8,38.2-25.4,34.4-48.2L939.5,610.1
						C935.7,587.3,914.1,571.9,891.3,575.7z"/>
				</g>
			</g>
		</g>
	</g>
</g>
<g>
	<path class="st4" d="M806.8,1620l0,1v0.3l-0.5,97.7l-0.8,165.9c-53-13.2-98.3-25.9-133.8-36.4c-59.8-17.7-116.5-44.7-167.6-80.5
		c-0.3-0.2-0.5-0.4-0.8-0.6l6.8-209.4c0,0-43-195.5-40-242.2c3-46.7,33.8-153.8,47.7-195c4.1-12.1,6.6-27.8,8-43.9
		c0.1-1.2,0.2-2.4,0.3-3.6c0,0,0,0,0,0c1.2-15.5,1.5-31.1,1.5-44.1c0-0.4,0-0.8,0-1.2c0-1.1,0-2.3,0-3.3c0-0.3,0-0.6,0-0.9
		c-0.2-15.7-0.9-26.6-0.9-26.6c0.3-2.7,0.6-5.2,1.1-7.5c0.5-2.5,1-4.7,1.7-6.9c0.5-1.6,1.1-3.1,1.6-4.6c4-9.6,10.2-15,17.5-17
		c5.4-1.5,11.4-1.1,17.6,0.8c22,6.7,46.5,32.3,55.2,61.8c16.2,55.1,1.7,214.5,1.7,214.5s37.6,38,61.2,113.7
		c6.3,20.1,11.5,42.8,14.9,68.2c1.3,9.6,1.9,18.7,2,27.2c0.1,9.8-0.6,18.9-1.8,27.2c-1.7,11.9-4.7,22.3-8.4,31.5
		c-19.7,49-61.3,62.2-61.3,62.2l2.7,0.8l67.7,19.8l103.1,30.1L806.8,1620L806.8,1620z"/>
</g>
<g>
	<g>
		<path class="st4" d="M1022.1,1096.5l4.6,28.2c0,0-39.7,40.1-26.8,91c13,50.9,47.2,57,47.2,57s53.5-71.7,52.6-96.6
			C1099,1151.3,1098.8,1107.6,1022.1,1096.5z"/>
	</g>
	<g>
		<path class="st9" d="M1054,1263.3c0,0,21.4-21.7,41.4-69.2c-3.3-2.1-9.5-3.8-13.4-5c-12.1-3.6-19.8-1.1-26.3,7.4l-24.6,36
			c0,0-4.7,9.2,5.7,19.8C1040.7,1256.4,1054,1263.3,1054,1263.3z"/>
	</g>
</g>
<g>
	<path d="M1047.9,1274.7l-1.1-0.3c-17.2-4.3-27.8-17.5-28.3-18.1c-1.1-1.3-28.2-33.7-22.8-71.3c5.4-37.5,36.8-68,38.1-69.3l2.3,2.4
		c-0.3,0.3-31.9,31-37.1,67.3c-5.2,36.1,21.8,68.4,22.1,68.7c0.1,0.2,10,12.4,25.3,16.6l30.5-43.1c31.9-46.1,17.2-82.2,17.1-82.5
		l3.1-1.3c0.2,0.4,4.1,9.7,3.9,25c-0.2,14-4,36-21.3,60.9L1047.9,1274.7z"/>
</g>
<g>
	<g>
		<path class="st4" d="M1053.2,1288.4l3.6,22c0,0-31,31.3-20.9,71.1c10.1,39.8,36.9,44.6,36.9,44.6s41.8-56,41.1-75.5
			C1113.2,1331.2,1113,1297,1053.2,1288.4z"/>
	</g>
	<g>
		<path class="st9" d="M1078.1,1418.7c0,0,16.8-17,32.3-54.1c-2.6-1.6-7.4-3-10.5-3.9c-9.5-2.8-15.5-0.9-20.6,5.8l-19.2,28.2
			c0,0-3.7,7.2,4.4,15.5C1067.6,1413.3,1078.1,1418.7,1078.1,1418.7z"/>
	</g>
</g>
<g>
	<path d="M1073.3,1427.6l-0.9-0.2c-13.4-3.3-21.7-13.7-22.1-14.1c-0.9-1-22.1-26.3-17.8-55.7c4.2-29.3,28.8-53.1,29.8-54.1l1.8,1.9
		c-0.2,0.2-24.9,24.2-29,52.6c-4.1,28.2,17,53.4,17.3,53.7c0.1,0.1,7.8,9.7,19.8,13l23.8-33.7c25-36,13.5-64.2,13.3-64.5l2.4-1
		c0.5,1.2,12.2,29.8-13.6,67.1L1073.3,1427.6z"/>
</g>
<g>
	<path class="st4" d="M692.6,1501.5c0,0-26.8,69.3,7.5,87.3c34.3,18-82.7,27.6-82.6,24.2c0-3.4-80.8-103.8-60.5-108.8
		c20.4-5,84-28.4,98.4-13.1C669.7,1506.5,692.6,1501.5,692.6,1501.5z"/>
</g>
<g>
	<g>
		<path class="st4" d="M995.1,929.8l4.6,28.2c0,0-39.7,40.1-26.8,91c13,50.9,47.2,57,47.2,57s53.5-71.7,52.6-96.6
			C1071.9,984.5,1071.7,940.8,995.1,929.8z"/>
	</g>
	<g>
		<path class="st9" d="M1026.9,1096.5c0,0,21.4-21.7,41.4-69.2c-3.3-2.1-9.5-3.8-13.4-5c-12.1-3.6-19.8-1.1-26.3,7.4l-24.6,36
			c0,0-4.7,9.2,5.7,19.8C1013.6,1089.7,1026.9,1096.5,1026.9,1096.5z"/>
	</g>
</g>
<g>
	<rect x="757.1" y="1667.8" transform="matrix(4.995690e-03 -1 1 4.995690e-03 -866.9401 2467.7644)" width="99" height="3.4"/>
</g>
<g>
	<path d="M798,1625.2l-1.4-3.1c57.6-25.4,111.1-74.3,136.4-108.9c22.4-30.6,32-53.3,32.1-53.5l3.1,1.3c-0.1,0.2-9.8,23.2-32.5,54.2
		C910.1,1550.1,856.1,1599.5,798,1625.2z"/>
</g>
<g>
	<path class="st9" d="M564.6,987.9c-3.4-9.6-27.8-10.8-34.9-9.5c-4.6,0.8,0.2,90.8-3.5,94.9c0,0-0.7,1.1,11.2,1.5
		c13.1,0.5,22.1-5,22.1-5S568,997.5,564.6,987.9z"/>
</g>
<g>
	<path d="M1020.8,1107.9l-1.1-0.3c-15.4-3.7-27.7-17.4-28.2-18c-1.2-1.4-28.3-33.7-22.9-71.4c5.4-37.5,36.8-68,38.1-69.3l2.3,2.4
		c-0.3,0.3-31.9,31-37.1,67.3c-5.2,36.1,21.8,68.3,22.1,68.7c0.1,0.1,11.5,12.8,25.3,16.6l30.5-43.1c31.9-46.1,17.2-82.2,17.1-82.5
		l3.1-1.3c0.2,0.4,4.1,9.7,3.9,25c-0.2,14-4,36-21.3,60.9L1020.8,1107.9z"/>
</g>
<g>
	<polygon points="998,958.2 944.4,649.7 947.8,649.1 1001.3,957.7 	"/>
</g>
<g>
	<path d="M1037.1,787.1l-2.8-2c0.2-0.3,23.5-33.5,6.4-52.9c-17.3-19.7-78.3-6.2-78.9-6.1l-0.7-3.3c2.6-0.6,63.6-14,82.2,7.2
		C1062.1,751.4,1038.1,785.7,1037.1,787.1z"/>
</g>
<g>
	<g>
		<g>
			<g>
				<g>
					<path class="st10" d="M578.1,1531.5c-0.5,0.4-1.2,0.4-1.8,0.2c-20.2-8.9-39-38.4-39.8-39.7c-0.5-0.8-0.3-1.9,0.6-2.5
						c0.8-0.5,1.9-0.3,2.5,0.6c0.2,0.3,19.1,29.9,38.2,38.3c0.9,0.4,1.3,1.5,0.9,2.4C578.5,1531.1,578.3,1531.4,578.1,1531.5z"/>
				</g>
			</g>
		</g>
	</g>
</g>
<g>
	<g>
		<g>
			<g>
				<g>
					<path class="st10" d="M602.5,1527.8c-0.4,0.3-0.9,0.4-1.4,0.3c-21.6-4.3-46.4-29.1-47.4-30.2c-0.7-0.7-0.7-1.8,0-2.5
						c0.7-0.7,1.8-0.7,2.5,0c0.2,0.3,25.1,25.1,45.6,29.2c1,0.2,1.6,1.1,1.4,2.1C603.1,1527.2,602.8,1527.5,602.5,1527.8z"/>
				</g>
			</g>
		</g>
	</g>
</g>
<g>
	<path d="M630.2,1569.9l-1-3.2c0.2-0.1,21.2-6.9,40.1-28.3c17.4-19.7,36.4-56.2,28.2-118c-8.2-62.2-28.3-108.1-43.7-135.6
		c-16.7-29.8-31.7-45.2-31.9-45.3l-0.6-0.6l0.1-0.8c0.1-1.6,14.3-159.7-1.6-213.9c-9.6-32.4-40-62.1-63.9-62.3c0,0,0,0-0.1,0
		c-11.8-0.1-20.4,7.3-24.7,21.3c-1.3,4.1-2.2,8.8-2.7,13.9c0.2,2.7,2.4,42.7-0.9,79.9c-1.6,18.4-4.3,33.3-8.1,44.3
		c-12.8,37.7-44.6,147.2-47.6,194.6c-2.9,46,39.6,239.8,40,241.7l-3.3,0.7c-1.8-8-43-196.2-40.1-242.7c3-47.7,35-157.6,47.8-195.4
		c3.6-10.8,6.3-25.4,7.9-43.5c3.4-38.1,0.9-79.1,0.9-79.6l0-0.1l0-0.1c0.6-5.4,1.5-10.4,2.9-14.7c6.1-19.7,18.5-23.7,28-23.7
		c0,0,0,0,0.1,0c12,0.1,26.3,7.2,39.2,19.4c13.2,12.6,23.1,28.6,28,45.3c15.7,53.4,3,200.9,1.8,214.4c2.9,3.1,16.7,18.4,31.8,45.3
		c15.6,27.8,36,74.1,44.2,137c3.7,27.9,2.2,53.1-4.2,74.9c-5.2,17.5-13.6,33-25,45.9C652.3,1562.7,631.1,1569.6,630.2,1569.9z"/>
</g>
<g>
	<path class="st4" d="M1565.2,774.7c0,0-67.9-4-82.2,23.9c-14.3,27.9,44.4,86.8,80.5,85.5C1599.6,882.9,1565.2,774.7,1565.2,774.7z"
		/>
</g>
<g>
	<path class="st5" d="M1914.2,1641.4c0,0-180.1-49.9-231.3-157.8c-51.1-107.9,140.9-158.1,138.2-157.6s207.5,16.8,227.1,46.7
		c19.6,29.9,104.6,153.8,80.3,158.4C2104.2,1535.6,1914.2,1641.4,1914.2,1641.4z"/>
</g>
<path class="st11" d="M1580.9,649.5c0-0.3,0-0.5,0-0.8c0.4-8.5,7-15.4,15.5-16c0.3,0,0.5,0,0.8-0.1c0.1,0,0.2,0,0.2,0l375.1-6.1
	c0.1,0,0.2,0,0.2,0c0.3,0,0.5,0,0.8,0c8.5,0.4,15.4,7,16,15.5c0,0.3,0,0.5,0.1,0.8c0,0.1,0,0.2,0,0.2l12.7,779.9
	c0.1,8.1-6.3,14.8-14.4,14.9l-379.4,6.2c-8.1,0.1-14.8-6.3-14.9-14.4l-12.7-779.9C1580.9,649.7,1580.9,649.6,1580.9,649.5z"/>
<g>
	<path class="st6" d="M1996,638.2l-31-20.5l-365.5,6.9l-31.6,28.7c0,0,3.6,32.6,5.6,33c2,0.5,426.3-1.5,426.2-8
		C1999.7,671.7,1996,638.2,1996,638.2z"/>
</g>
<g class="st7">
	<g>
		<g>
			<g>
				<g>
					<path class="st1" d="M1957.1,656.1c0,2.3,1.4,4.2,3.4,5.1c0.7,0.3,1.5,0.5,2.3,0.5c0.8,0,1.6-0.2,2.3-0.5
						c1.9-0.9,3.3-2.9,3.3-5.2c-0.1-3.1-2.6-5.6-5.7-5.6C1959.6,650.4,1957.1,653,1957.1,656.1z"/>
				</g>
			</g>
		</g>
	</g>
	<g>
		<g>
			<g>
				<g>
					<path class="st1" d="M1939.7,656.4c0,2.3,1.4,4.2,3.4,5.1c0.7,0.3,1.5,0.5,2.3,0.5c0.8,0,1.6-0.2,2.3-0.5
						c1.9-0.9,3.3-2.9,3.2-5.2c-0.1-3.1-2.6-5.6-5.7-5.6C1942.1,650.7,1939.6,653.3,1939.7,656.4z"/>
				</g>
			</g>
		</g>
	</g>
	<g>
		<g>
			<g>
				<g>
					<path class="st1" d="M1922.2,656.7c0,2.3,1.4,4.2,3.4,5.1c0.7,0.3,1.5,0.5,2.3,0.5s1.6-0.2,2.3-0.5c1.9-0.9,3.3-2.9,3.2-5.2
						c-0.1-3.1-2.6-5.6-5.7-5.6C1924.6,651,1922.2,653.6,1922.2,656.7z"/>
				</g>
			</g>
		</g>
	</g>
</g>
<g>
	<g>
		<g>
			<g>
				<g>
					<path class="st8" d="M1581,658.3c-0.2-14,11-25.6,25-25.8l358-5.8c14-0.2,25.6,10.9,25.8,25l12.4,763.3
						c0.2,12.6-9.8,22.9-22.4,23.1l-363.3,5.9c-12.6,0.2-22.9-9.8-23.1-22.4L1581,658.3z M1563.8,658.2l12.5,771.1
						c0.4,23.1,19.4,41.6,42.6,41.2l359.5-5.8c23.1-0.4,41.6-19.4,41.2-42.6L2007,650.9c-0.4-23.1-19.4-41.6-42.6-41.2l-359.5,5.8
						C1581.8,616,1563.4,635,1563.8,658.2z"/>
				</g>
			</g>
		</g>
	</g>
</g>
<g>
	<path class="st4" d="M2170.6,1769.2c-85.8,72.7-187.8,122.3-298.1,154.6l0.2-148.1l0.1-50.9l4.1-96v0l-0.1-0.3l-0.2-1l1-0.5
		l2.3-1.1l96-48.3c0,0,0,0,0,0l63-31.7l2.6-1.3c0,0-43.4-5.5-71.6-50.3c0,0,0-0.1-0.1-0.1c0,0,0-0.1,0-0.1
		c-5.2-8.3-9.9-17.9-13.7-29.1c-2.7-8-5-16.8-6.7-26.4l0,0c-1.5-8.4-2.5-17.4-3-27.1c-0.8-14.9-0.7-29.1,0-42.4
		c0.5-9.5,1.3-18.6,2.3-27.3v0c1.3-10.5,2.9-20.3,4.8-29.5c5.2-25.5,12.2-46.1,18.6-61.4c8.7-20.9,16.3-32,16.3-32
		s-9.1-32.6-18.4-73.4c-0.8-3.3-1.5-6.7-2.3-10.1c-10.1-45.8-19.5-99-16.4-127.7c3.2-30.6,22.7-60.3,43.1-70.8
		c5.8-3,11.6-4.4,17.2-3.9c7.5,0.7,14.6,4.8,20.3,13.6c0.8,1.3,1.7,2.7,2.4,4.2c1,2,2,4.1,2.9,6.4c0,0,0,0,0,0
		c0.9,2.2,1.7,4.7,2.5,7.2c0,0,1.4,11.5,4.3,28c0.1,0.8,0.3,1.6,0.4,2.4c0.1,0.8,0.3,1.5,0.4,2.3c2.3,12.6,5.4,27.5,9.3,42.1v0
		c0,0,0,0,0,0c0,0,0,0,0,0c0.3,1.2,0.6,2.3,0.9,3.5c4.3,15.6,9.6,30.6,15.8,41.7c21.2,38,70.8,137.8,82.2,183.2
		c11.4,45.4,4.4,245.4,4.4,245.4v0L2170.6,1769.2z"/>
</g>
<g>
	<g>
		<path class="st4" d="M1570.4,1151.5l0.6,28.5c0,0,46.3,32.3,42.8,84.7c-3.6,52.4-36.1,64.6-36.1,64.6s-65.6-60.9-69.2-85.5
			C1504.7,1219.2,1497,1176.2,1570.4,1151.5z"/>
	</g>
	<g>
		<path class="st9" d="M1569.1,1321.3c0,0-25-17.5-53.2-60.6c2.9-2.6,8.6-5.5,12.3-7.3c11.2-5.7,19.3-4.7,27.2,2.5l30.7,31
			c0,0,6.3,8.2-2,20.5C1581,1312.1,1569.1,1321.3,1569.1,1321.3z"/>
	</g>
</g>
<g>
	<path d="M1577.2,1331.3l-39.5-38.5c-21.5-21.4-29.2-42.3-31.9-56c-3-15-0.8-24.8-0.7-25.2l3.3,0.7c-0.1,0.4-8,38.5,31.7,78.1
		l37.8,36.8c14.4-7,21.8-20.7,21.9-20.9c0.2-0.4,21-37,9.3-71.6c-11.7-34.8-48.3-59.2-48.7-59.5l1.9-2.8c1.5,1,38,25.4,50,61.2
		c12.1,36-8.7,72.8-9.6,74.3c-0.3,0.6-8.4,15.5-24.5,22.8L1577.2,1331.3z"/>
</g>
<g>
	<g>
		<path class="st4" d="M1574.5,1345.8l0.4,22.3c0,0,36.2,25.2,33.4,66.2c-2.8,41-28.2,50.5-28.2,50.5s-51.2-47.6-54.1-66.8
			C1523.1,1398.7,1517.1,1365.1,1574.5,1345.8z"/>
	</g>
	<g>
		<path class="st9" d="M1573.5,1478.5c0,0-19.6-13.7-41.6-47.4c2.3-2,6.7-4.3,9.6-5.7c8.8-4.5,15.1-3.6,21.3,2l24,24.2
			c0,0,4.9,6.4-1.6,16C1582.8,1471.3,1573.5,1478.5,1573.5,1478.5z"/>
	</g>
</g>
<g>
	<path d="M1579.8,1486.4l-30.8-30.1c-32.2-32-25.8-62.2-25.5-63.5l2.6,0.6c-0.1,0.3-6.3,30.1,24.8,61l29.5,28.8
		c11.3-5.5,17-16.2,17.1-16.3c0.2-0.3,16.4-28.9,7.3-55.9c-9.1-27.2-37.7-46.3-38-46.5l1.5-2.2c1.2,0.8,29.7,19.8,39.1,47.9
		c9.5,28.2-6.8,56.9-7.5,58.1c-0.2,0.5-6.5,12.1-19.1,17.8L1579.8,1486.4z"/>
</g>
<g>
	<path class="st4" d="M1967.6,1490.3c0,0,38.9,63.3,8.4,87.2c-30.5,23.9,86.3,12.2,85.6,8.9c-0.6-3.3,60.8-116.7,39.8-117.9
		c-20.9-1.2-87.8-12.7-99.1,4.9C1991,1491.1,1967.6,1490.3,1967.6,1490.3z"/>
</g>
<g>
	<g>
		<path class="st4" d="M1566.9,982.6l0.6,28.5c0,0,46.3,32.3,42.8,84.7s-36.1,64.6-36.1,64.6s-65.6-60.9-69.2-85.5
			C1501.2,1050.3,1493.5,1007.3,1566.9,982.6z"/>
	</g>
	<g>
		<path class="st9" d="M1565.6,1152.4c0,0-25-17.5-53.2-60.6c2.9-2.6,8.6-5.5,12.3-7.3c11.2-5.7,19.3-4.7,27.2,2.5l30.7,31
			c0,0,6.3,8.2-2,20.5C1577.5,1143.2,1565.6,1152.4,1565.6,1152.4z"/>
	</g>
</g>
<g>
	
		<rect x="1800.5" y="1699.9" transform="matrix(2.655385e-02 -0.9996 0.9996 2.655385e-02 123.8823 3530.4197)" width="148.2" height="3.4"/>
</g>
<g>
	<path d="M1886.3,1631c-61.8-14.7-123.9-53.5-155.4-83.3c-27.9-26.4-41.6-47.2-41.8-47.5l2.8-1.9c0.1,0.2,13.7,20.8,41.3,46.8
		c31.2,29.5,92.6,67.9,153.8,82.5L1886.3,1631z"/>
</g>
<g>
	<path class="st9" d="M2000.7,962.1c1.6-10,25.4-15.7,32.6-15.7c4.7,0,16.2,89.3,20.6,92.7c0,0,0.9,1-10.7,3.5
		c-12.8,2.8-22.7-1-22.7-1S1999.1,972.1,2000.7,962.1z"/>
</g>
<g>
	<path d="M1573.7,1162.4l-39.5-38.5c-21.5-21.4-29.2-42.3-31.9-56c-3-15-0.8-24.8-0.7-25.2l3.3,0.7c-0.1,0.4-8,38.5,31.7,78.1
		l37.8,36.8c13-6.2,21.8-20.8,21.9-21c0.2-0.3,20.9-36.9,9.3-71.5c-11.7-34.8-48.3-59.2-48.7-59.5l1.9-2.8c1.5,1,38,25.4,50,61.2
		c12.1,36-8.7,72.8-9.6,74.3c-0.4,0.7-10,16.4-24.5,22.8L1573.7,1162.4z"/>
</g>
<g>
	<polygon points="1566.9,1011.2 1563.1,698.2 1565.3,698.2 1569.1,1011.1 	"/>
</g>
<g>
	<path d="M1499.7,849.9c-1.3-1.2-31.1-30.6-16.4-55.1c14.5-24.2,76.9-22,79.6-21.9l-0.1,3.4c-0.6,0-63.1-2.2-76.5,20.2
		c-13.3,22.2,15.6,50.6,15.9,50.9L1499.7,849.9z"/>
</g>
<g>
	<g>
		<g>
			<g>
				<g>
					<path class="st10" d="M2085.7,1499.2c0.6,0.3,1.2,0.2,1.8-0.1c18.2-12.4,31.4-44.9,32-46.2c0.4-0.9-0.1-1.9-1-2.3
						c-0.9-0.4-2,0.1-2.3,1c-0.1,0.3-13.4,32.9-30.7,44.6c-0.8,0.6-1,1.7-0.5,2.5C2085.1,1498.8,2085.4,1499,2085.7,1499.2z"/>
				</g>
			</g>
		</g>
	</g>
</g>
<g>
	<g>
		<g>
			<g>
				<g>
					<path class="st10" d="M2061,1499.9c0.4,0.2,0.9,0.2,1.4,0c20.5-8.1,40.4-37,41.2-38.2c0.6-0.8,0.3-1.9-0.5-2.5
						c-0.8-0.6-1.9-0.3-2.5,0.5c-0.2,0.3-20.1,29.2-39.6,36.9c-0.9,0.4-1.4,1.4-1,2.3C2060.3,1499.4,2060.6,1499.7,2061,1499.9z"/>
				</g>
			</g>
		</g>
	</g>
</g>
<g>
	<path d="M2041.3,1546.3c-0.9-0.1-22.9-3.1-46-21.2c-13.5-10.6-24.6-24.3-32.9-40.6c-10.3-20.3-16.2-44.9-17.7-72.9
		c-3.2-63.3,8.4-112.5,18.7-142.7c10-29.2,20.8-46.8,23.1-50.3c-3.6-13-42.8-155.8-36.9-211.2c1.8-17.3,8.7-34.9,19.4-49.6
		c10.4-14.4,23.2-23.9,35-26.2c9.2-1.8,22.3,0,31.8,18.2c2.1,4,4,8.7,5.5,14l0.1,0.3c0,0.4,5,41.2,15.2,78.1
		c4.8,17.5,10.1,31.4,15.6,41.4c19.4,34.9,70.7,137.3,82.3,183.6c11.3,45.1,4.7,237.7,4.4,245.9l-3.4-0.1c0.1-2,6.9-200.3-4.3-245
		c-11.5-46-62.6-148-82-182.8c-5.7-10.2-11-24.3-15.9-42.1c-10-36-15-75.8-15.3-78.4c-1.5-5-3.2-9.4-5.2-13.2
		c-6.8-13-16.6-18.7-28.2-16.5c-23.5,4.5-48.1,39.2-51.6,72.8c-5.9,56.1,36.6,209.1,37,210.7l0.2,0.8l-0.4,0.7
		c-0.1,0.2-12.1,17.9-23.2,50.3c-10.2,29.9-21.7,78.6-18.5,141.3c3.2,62.4,28.5,94.8,49.2,111.1c22.4,17.6,44.2,20.5,44.4,20.5
		L2041.3,1546.3z"/>
</g>
<g>
	
		<ellipse transform="matrix(0.7071 -0.7071 0.7071 0.7071 -548.052 893.604)" class="st3" cx="804.6" cy="1108.4" rx="85.6" ry="85.6"/>
</g>
<g>
	<g>
		<path class="st1" d="M788.8,1151.9l-32.3-44.9c-1.5-2.1-1-5.1,1.1-6.6c2.1-1.5,5.1-1,6.6,1.1l24.9,34.7l62.3-79
			c1.6-2.1,4.6-2.4,6.7-0.8c2.1,1.6,2.4,4.6,0.8,6.7L788.8,1151.9z"/>
	</g>
</g>
<polygon class="st3" points="833.8,1178.6 869.1,1213.5 853.7,1158.1 "/>
<rect x="1669.8" y="1289.5" class="st1" width="249.1" height="12.4"/>
<rect x="1669.8" y="1340.7" class="st1" width="249.1" height="12.4"/>
<g>
	<g>
		<path class="st12" d="M1144.7,613c-12.6-1-24.7-4.4-36.2-10.1l3-6.1c10.7,5.3,22,8.5,33.7,9.5L1144.7,613z M1182.1,610.1l-1.6-6.6
			c11.6-2.9,22.4-7.7,32.1-14.3l3.8,5.6C1206,601.9,1194.5,607,1182.1,610.1z M1078.2,580.8c-8.4-8.3-16.2-18.2-23.1-29.3l5.8-3.6
			c6.6,10.6,14.1,20.1,22.1,28L1078.2,580.8z M1243.3,568.6l-5.5-4c6.8-9.4,12.3-20,16.2-31.5l6.4,2.2
			C1256.3,547.5,1250.6,558.7,1243.3,568.6z M715.1,555l-6.8-0.4c0.8-12.2,2.4-24.5,4.6-36.7l6.7,1.2C717.4,531,715.9,543,715.1,555
			z M1038.5,518.3c-4.4-11.2-8.1-23.1-10.9-35.4l6.6-1.5c2.7,11.9,6.3,23.5,10.6,34.4L1038.5,518.3z M1267.8,498.7l-6.8-0.5
			c0.2-3.2,0.3-6.5,0.3-9.8c0-8.5-0.7-17.2-2.2-25.9l6.7-1.1c1.5,9,2.3,18.1,2.3,27C1268.1,491.9,1268,495.3,1267.8,498.7z
			 M728.2,484l-6.5-2c3.6-11.7,7.9-23.4,12.8-34.7l6.2,2.7C735.9,461.1,731.7,472.5,728.2,484z M1021.8,446.4
			c-1.3-12.4-2.2-24.7-2.8-36.7l6.8-0.3c0.5,11.8,1.4,24,2.7,36.3L1021.8,446.4z M1249.6,428.1c-4.2-10.9-9.6-21.7-16.1-32.1
			l5.8-3.6c6.6,10.8,12.2,21.9,16.6,33.2L1249.6,428.1z M756.9,417.6l-5.9-3.4c6.1-10.7,12.9-21.1,20.1-31l5.5,4
			C769.5,397,762.9,407.2,756.9,417.6z M1863.5,417.5l-6.5-2.1c3.7-11.7,6.6-23.5,8.6-35l6.7,1.2
			C1870.3,393.4,1867.3,405.5,1863.5,417.5z M1025.4,373.1l-6.8-0.2c0.3-12.5,1.1-24.8,2.3-36.7l6.7,0.7
			C1026.5,348.7,1025.8,360.9,1025.4,373.1z M1212.2,367c-7.6-8.9-16.2-17.5-25.4-25.6l4.5-5.1c9.4,8.4,18.2,17.2,26,26.3
			L1212.2,367z M799.5,359.2l-5-4.6c8.4-9.1,17.3-17.8,26.5-25.8l4.4,5.1C816.4,341.8,807.7,350.3,799.5,359.2z M1875.9,344.7
			l-6.8-0.1c0-1.4,0-2.7,0-4c0-10.7-0.8-21.4-2.3-31.8l6.7-1c1.6,10.8,2.4,21.8,2.4,32.8C1875.9,341.9,1875.9,343.3,1875.9,344.7z
			 M1158.4,319c-8.4-5.9-17.4-11.5-26.7-16.9c-1.3-0.8-2.7-1.5-4-2.3l3.3-5.9c1.4,0.8,2.7,1.5,4.1,2.3c9.5,5.4,18.6,11.2,27.2,17.2
			L1158.4,319z M854.2,312l-3.8-5.6c10.3-6.9,21-13.2,31.9-18.7l3,6.1C874.7,299.1,864.2,305.3,854.2,312z M1033.1,301.1l-6.7-1.3
			c2.4-12.2,5.3-24.3,8.8-35.8l6.5,1.9C1038.3,277.3,1035.4,289.1,1033.1,301.1z M1095,284.4c-11.3-4.5-22.8-8.3-34.3-11.1l1.6-6.6
			c11.8,2.9,23.6,6.8,35.2,11.4L1095,284.4z M918.6,279.7l-2.2-6.4c11.7-4,23.7-7.3,35.7-9.6l1.3,6.7
			C941.7,272.6,930,275.8,918.6,279.7z M1858.8,273.7c-3.6-11.3-8.1-22.5-13.5-33.3l6.1-3c5.6,11.2,10.3,22.7,13.9,34.3
			L1858.8,273.7z M1025.2,267.1c-11.9-1.2-24.1-1.5-36-1l-0.3-6.8c12.3-0.6,24.8-0.2,37,1L1025.2,267.1z M1053.9,232l-6.3-2.6
			c4.8-11.4,10.3-22.6,16.2-33.1l5.9,3.3C1063.9,209.9,1058.6,220.8,1053.9,232z M1826.9,209.3c-6.6-9.7-14.1-19.2-22.3-28.4
			l5.1-4.5c8.3,9.4,16,19.2,22.8,29.1L1826.9,209.3z M1089.3,169.2l-5.5-4c7.3-9.9,15.2-19.4,23.6-28.4l4.9,4.6
			C1104.2,150.2,1096.4,159.5,1089.3,169.2z M1779.1,155.2c-8.7-7.9-18.1-15.7-28-23l4.1-5.4c10,7.5,19.6,15.4,28.5,23.4
			L1779.1,155.2z M1138.7,116.6l-4.4-5.2c9.3-7.8,19.2-15.2,29.6-22.1l3.8,5.6C1157.5,101.7,1147.8,109,1138.7,116.6z M1721.2,111.7
			c-10.1-6.3-20.7-12.4-31.5-18l3.2-6c11,5.8,21.8,11.9,32,18.3L1721.2,111.7z M1656.9,77.9c-10.9-4.8-22.3-9.4-33.8-13.5l2.3-6.4
			c11.6,4.2,23.1,8.8,34.2,13.7L1656.9,77.9z M1198.8,76.5l-3.1-6c10.7-5.6,21.9-10.8,33.5-15.5l2.6,6.3
			C1220.4,65.9,1209.3,71,1198.8,76.5z M1588.6,53c-11.5-3.4-23.4-6.5-35.2-9.3l1.5-6.6c12,2.8,23.9,5.9,35.6,9.4L1588.6,53z
			 M1265.8,49.1l-2-6.5c11.5-3.6,23.5-6.7,35.6-9.4l1.5,6.6C1289,42.5,1277.2,45.6,1265.8,49.1z M1517.7,36.6
			c-11.9-2-24.1-3.7-36-5.1l0.7-6.7c12.1,1.3,24.4,3.1,36.4,5.1L1517.7,36.6z M1336.6,33.3l-1-6.7c12-1.7,24.3-3.1,36.6-4l0.5,6.8
			C1360.6,30.3,1348.4,31.6,1336.6,33.3z M1445.4,28.5c-12.1-0.6-24.3-0.9-36.3-0.7L1409,21c12.1-0.1,24.5,0.1,36.8,0.7L1445.4,28.5
			z"/>
	</g>
	<g>
		<path class="st12" d="M1841.8,469.3l-6-3.1c2.8-5.4,5.5-10.9,7.9-16.3l6.2,2.8C1847.4,458.2,1844.7,463.8,1841.8,469.3z"/>
	</g>
</g>
<g>
	<g>
		<g>
			<g>
				<g>
					<g>
						<g>
							<g>
								<g>
									<path class="st13" d="M1783,504l-37.7,64.9c0,0,54.5-43.7,55.8-44.7c1.3-1,49.8-71.6,49.8-71.6l21.6-6.2l-34.2-9.2
										L1783,504z"/>
								</g>
							</g>
						</g>
					</g>
				</g>
			</g>
		</g>
	</g>
	<g>
		<g>
			<g>
				<g>
					<g>
						<g>
							<g>
								<g>
									<polygon class="st14" points="1838.3,437.3 1814,414.2 1745.3,569 									"/>
								</g>
							</g>
						</g>
					</g>
				</g>
			</g>
		</g>
	</g>
	<g>
		<g>
			<g>
				<g>
					<g>
						<g>
							<g>
								<g>
									<polygon class="st14" points="1883.1,483.2 1850.9,452.7 1745.3,569 									"/>
								</g>
							</g>
						</g>
					</g>
				</g>
			</g>
		</g>
	</g>
</g>
<rect x="602.7" y="800.8" transform="matrix(0.9857 -0.1684 0.1684 0.9857 -136.9344 139.7644)" class="st15" width="305.8" height="152.9"/>
<g id="g30" transform="translate(33.9766,61.0674)">
	<path id="path32" class="st16" d="M600.2,870.6l1.9-0.3l-0.5,7.8c-0.1,1.2,0.1,2,0.6,2.5c0.5,0.5,1.2,0.7,2.2,0.5
		c1-0.2,1.8-0.6,2.3-1.3c0.5-0.7,0.8-1.6,0.9-2.7l0.5-7.8l2-0.3l-0.5,8c-0.1,1.7-0.6,3.1-1.5,4.1c-0.9,1-2.1,1.6-3.8,1.9
		c-1.7,0.3-2.9,0.1-3.6-0.7c-0.8-0.7-1.1-2-1-3.7L600.2,870.6z"/>
</g>
<g id="g34" transform="translate(47.7734,43.3633)">
	<path id="path36" class="st16" d="M598.1,899l0.9-13.4l7.1,6.6c0.2,0.2,0.4,0.4,0.6,0.6s0.4,0.5,0.6,0.7l0.6-8.9l1.8-0.3l-0.9,13.4
		l-7.3-6.7c-0.2-0.2-0.4-0.4-0.6-0.6c-0.2-0.2-0.3-0.4-0.5-0.7l-0.6,8.9L598.1,899z"/>
</g>
<g id="g38" transform="translate(67.2119,43.3633)">
	<path id="path40" class="st16" d="M592.3,896.7l0.8-12.9l2-0.3l-0.8,12.9L592.3,896.7z"/>
</g>
<g id="g42" transform="translate(74.0488,43.3633)">
	<path id="path44" class="st16" d="M590.2,895.9l0.8-12.9l6.7-1.1l-0.1,1.8l-4.8,0.8l-0.2,3.2l4.8-0.8l-0.1,1.8l-4.8,0.8l-0.4,6
		L590.2,895.9z"/>
</g>
<g id="g46" transform="translate(86.7686,43.3633)">
	<path id="path48" class="st16" d="M586.4,894.4l0.8-12.9l2-0.3l-0.8,12.9L586.4,894.4z"/>
</g>
<g id="g50" transform="translate(93.6055,43.3633)">
	<path id="path52" class="st16" d="M584.3,893.6l0.8-12.9l6.7-1.1l-0.1,1.8l-4.8,0.8l-0.2,3.2l4.8-0.8l-0.1,1.8l-4.8,0.8l-0.3,4.2
		l4.8-0.8l-0.1,1.9L584.3,893.6z"/>
</g>
<g id="g54" transform="translate(109.8818,45.9639)">
	<path id="path56" class="st16" d="M579.1,887.2l1.6-0.3c0.9-0.2,1.6-0.3,2-0.5c0.5-0.2,0.9-0.5,1.2-0.9c0.5-0.5,0.9-1.1,1.1-1.7
		c0.3-0.7,0.4-1.4,0.5-2.2c0.1-0.8,0-1.5-0.2-2.1c-0.2-0.6-0.5-1-0.9-1.4c-0.3-0.2-0.7-0.4-1.2-0.4c-0.5,0-1.2,0-2.2,0.2l-0.7,0.1
		l-0.7,0.1L579.1,887.2z M577,889.4l0.8-12.9l2.6-0.5c1.7-0.3,2.9-0.4,3.6-0.3c0.7,0.1,1.3,0.3,1.8,0.6c0.7,0.4,1.1,1.1,1.4,1.9
		c0.3,0.8,0.4,1.8,0.3,3c-0.1,1.1-0.3,2.2-0.7,3.1c-0.4,0.9-1,1.8-1.7,2.5c-0.6,0.5-1.2,0.9-1.9,1.2c-0.7,0.3-1.7,0.6-3.2,0.8
		l-0.5,0.1L577,889.4z"/>
</g>
<g id="g58" transform="translate(136.8799,53.666)">
	<path id="path60" class="st16" d="M570,870.9l0.5-0.1c1.1-0.2,1.8-0.4,2.2-0.7c0.4-0.3,0.6-0.8,0.6-1.4c0-0.7-0.1-1.1-0.5-1.3
		c-0.4-0.2-1.1-0.2-2.1-0.1l-0.5,0.1L570,870.9z M569.7,872.7l-0.4,5.8l-1.8,0.3l0.8-12.9l3-0.5c0.9-0.1,1.5-0.2,1.9-0.2
		c0.4,0,0.8,0.1,1,0.3c0.4,0.2,0.6,0.6,0.8,1.1c0.2,0.5,0.3,1,0.2,1.6c0,0.6-0.2,1.2-0.4,1.7c-0.2,0.6-0.6,1-1,1.4
		c-0.3,0.3-0.7,0.5-1.1,0.7c-0.4,0.2-1.1,0.3-1.9,0.5l-0.4,0.1L569.7,872.7z"/>
</g>
<g id="g62" transform="translate(148.4458,50.3164)">
	<path id="path64" class="st16" d="M566.9,875.2l3.4-0.6l-1-2.7c-0.1-0.2-0.1-0.4-0.2-0.6c-0.1-0.2-0.1-0.5-0.2-0.8
		c-0.1,0.3-0.2,0.6-0.3,0.8c-0.1,0.3-0.2,0.5-0.3,0.7L566.9,875.2z M572,879.4l-1.1-3.1l-4.8,0.8l-1.6,3.5l-2.1,0.4l6.7-14.4
		L574,879L572,879.4z"/>
</g>
<g id="g66" transform="translate(161.5161,43.3633)">
	<path id="path68" class="st16" d="M563.8,885.5l0.4-5.9l-3.6-6.3l2.1-0.4l2.2,3.9c0.1,0.1,0.1,0.2,0.2,0.4c0.1,0.2,0.2,0.3,0.2,0.5
		c0.1-0.2,0.2-0.4,0.3-0.6c0.1-0.2,0.2-0.4,0.3-0.5l2.9-4.8l2-0.3l-4.6,7.7l-0.4,5.9L563.8,885.5z"/>
</g>
<g id="g70" transform="translate(188.2803,52.1074)">
	<path id="path72" class="st16" d="M554.6,867.4c0-0.1,0-0.4-0.1-0.8c0-0.4,0-0.7-0.1-0.9c-0.1,0.3-0.2,0.6-0.3,0.9
		c-0.1,0.3-0.2,0.6-0.4,1l-3.6,7.4l-2.7-6.5c-0.1-0.3-0.2-0.5-0.3-0.8c-0.1-0.3-0.1-0.5-0.2-0.8c0,0.3-0.1,0.6-0.1,0.9
		c-0.1,0.3-0.1,0.6-0.2,1l-1.7,6.6l-1.8,0.3l3.7-13.9l3,7.5c0,0.1,0.1,0.3,0.2,0.6c0.1,0.3,0.2,0.6,0.3,1c0.1-0.4,0.3-0.9,0.6-1.5
		c0.1-0.2,0.1-0.3,0.2-0.4l4-8.7l2,12.9l-1.8,0.3L554.6,867.4z"/>
</g>
<g id="g74" transform="translate(192.9419,43.3633)">
	<path id="path76" class="st16" d="M554.3,881.7l0.8-12.9l6.7-1.1l-0.1,1.8l-4.8,0.8l-0.2,3.2l4.8-0.8l-0.1,1.8l-4.8,0.8l-0.3,4.2
		l4.8-0.8l-0.1,1.9L554.3,881.7z"/>
</g>
<g id="g78" transform="translate(205.791,43.3633)">
	<path id="path80" class="st16" d="M550.4,880.2l0.9-13.4l7.1,6.6c0.2,0.2,0.4,0.4,0.6,0.6c0.2,0.2,0.4,0.5,0.6,0.7l0.6-8.9l1.8-0.3
		l-0.9,13.4l-7.3-6.7c-0.2-0.2-0.4-0.4-0.6-0.6c-0.2-0.2-0.3-0.4-0.5-0.7l-0.6,8.9L550.4,880.2z"/>
</g>
<g id="g82" transform="translate(234.4102,58.625)">
	<path id="path84" class="st16" d="M539.9,850.9l-0.7,11.1l-2,0.3l0.7-11.1l-3.2,0.5l0.1-1.8l8.3-1.4l-0.1,1.8L539.9,850.9z"/>
</g>
<g id="g86" transform="translate(237.3213,46.9072)">
	<path id="path88" class="st16" d="M540.4,870.4l1.6-1c0.1,0.5,0.4,0.9,0.7,1.2c0.4,0.2,0.9,0.3,1.5,0.2c0.6-0.1,1.1-0.4,1.4-0.8
		c0.4-0.4,0.6-0.9,0.6-1.5c0-0.8-0.5-1.3-1.6-1.7c-0.2-0.1-0.3-0.1-0.4-0.1c-1.3-0.5-2.1-0.9-2.5-1.4c-0.4-0.5-0.6-1.1-0.5-1.9
		c0.1-1,0.5-2,1.2-2.7c0.7-0.8,1.6-1.2,2.7-1.4c0.9-0.2,1.6-0.1,2.2,0.2c0.6,0.3,1,0.7,1.1,1.4l-1.6,1.1c-0.2-0.4-0.5-0.6-0.7-0.8
		c-0.3-0.1-0.6-0.2-1-0.1c-0.5,0.1-1,0.3-1.3,0.7c-0.3,0.3-0.5,0.8-0.5,1.3c-0.1,0.8,0.6,1.4,1.9,1.8c0.1,0,0.2,0.1,0.2,0.1
		c1.2,0.4,1.9,0.8,2.3,1.3c0.4,0.5,0.6,1.1,0.5,2c-0.1,1.2-0.5,2.2-1.3,3.1c-0.8,0.8-1.8,1.4-3,1.6c-1,0.2-1.8,0.1-2.5-0.3
		C541,872,540.6,871.3,540.4,870.4"/>
</g>
<g id="g90" transform="translate(258.0459,43.3633)">
	<path id="path92" class="st16" d="M534.6,874l0.8-12.9l2-0.3l-0.8,12.9L534.6,874z"/>
</g>
<g id="g94" transform="translate(264.8828,43.3633)">
	<path id="path96" class="st16" d="M532.5,873.2l0.9-13.4l7.1,6.6c0.2,0.2,0.4,0.4,0.6,0.6c0.2,0.2,0.4,0.5,0.6,0.7l0.6-8.9l1.8-0.3
		l-0.9,13.4l-7.3-6.7c-0.2-0.2-0.4-0.4-0.6-0.6c-0.2-0.2-0.3-0.4-0.5-0.7l-0.6,8.9L532.5,873.2z"/>
</g>
<g id="g98" transform="translate(293.502,58.625)">
	<path id="path100" class="st16" d="M522.1,843.8l-0.7,11.1l-2,0.3l0.7-11.1l-3.2,0.5l0.1-1.8l8.3-1.4l-0.1,1.8L522.1,843.8z"/>
</g>
<g id="g102" transform="translate(296.5557,43.3633)">
	<path id="path104" class="st16" d="M522.9,869.4l0.8-12.9l6.7-1.1l-0.1,1.8l-4.8,0.8l-0.2,3.2l4.8-0.8l-0.1,1.8l-4.8,0.8l-0.3,4.2
		l4.8-0.8l-0.1,1.9L522.9,869.4z"/>
</g>
<g id="g106" transform="translate(314.6416,53.5225)">
	<path id="path108" class="st16" d="M516.3,850l0.4-0.1c1-0.2,1.7-0.4,2.1-0.7c0.4-0.3,0.6-0.8,0.6-1.5c0-0.7-0.1-1.2-0.4-1.4
		c-0.3-0.2-1-0.3-2-0.1l-0.4,0.1L516.3,850z M516,851.6l-0.4,5.8l-1.8,0.3l0.8-12.9l2.7-0.5c0.8-0.1,1.4-0.2,1.9-0.2
		c0.4,0,0.8,0.2,1.1,0.4c0.4,0.2,0.6,0.6,0.8,1.1c0.2,0.5,0.2,1,0.2,1.6c-0.1,1-0.4,1.9-0.9,2.5c-0.5,0.7-1.2,1.1-2.1,1.4l3.8,5.1
		l-2.2,0.4l-3.6-5.1L516,851.6z"/>
</g>
<g id="g110" transform="translate(322.9258,43.3633)">
	<path id="path112" class="st16" d="M515,866.2l0.8-12.9l6.7-1.1l-0.1,1.8l-4.8,0.8l-0.2,3.2l4.8-0.8l-0.1,1.8l-4.8,0.8l-0.4,6
		L515,866.2z"/>
</g>
<g id="g114" transform="translate(340.0449,50.3164)">
	<path id="path116" class="st16" d="M509,852.4l3.4-0.6l-1-2.7c-0.1-0.2-0.1-0.4-0.2-0.6c-0.1-0.2-0.1-0.5-0.2-0.8
		c-0.1,0.3-0.2,0.6-0.3,0.8c-0.1,0.3-0.2,0.5-0.3,0.7L509,852.4z M514.1,856.5l-1.1-3.1l-4.8,0.8l-1.6,3.5l-2.1,0.4l6.7-14.4
		l4.9,12.4L514.1,856.5z"/>
</g>
<g id="g118" transform="translate(367.3555,56.7627)">
	<path id="path120" class="st16" d="M499.9,838.2c-0.5-0.4-1.1-0.7-1.7-0.8c-0.6-0.1-1.2-0.2-1.9,0c-1.3,0.2-2.4,0.9-3.3,1.9
		c-0.9,1-1.4,2.3-1.5,3.7c-0.1,1.4,0.2,2.5,1,3.2c0.7,0.8,1.7,1,2.9,0.8c0.7-0.1,1.4-0.4,2.1-0.8c0.7-0.4,1.3-0.9,1.9-1.5l-0.2,2.4
		c-0.6,0.5-1.1,0.9-1.8,1.2c-0.6,0.3-1.3,0.5-2,0.6c-0.9,0.2-1.8,0.1-2.5,0c-0.8-0.2-1.4-0.5-2-1.1c-0.5-0.5-1-1.2-1.2-1.9
		c-0.3-0.8-0.4-1.6-0.3-2.6c0.1-0.9,0.3-1.9,0.6-2.7c0.4-0.9,0.9-1.7,1.5-2.4c0.6-0.7,1.4-1.3,2.2-1.8c0.8-0.5,1.6-0.8,2.5-0.9
		c0.7-0.1,1.4-0.1,2,0c0.6,0.1,1.2,0.3,1.8,0.7L499.9,838.2z"/>
</g>
<g id="g122" transform="translate(367.627,43.3633)">
	<path id="path124" class="st16" d="M501.5,860.9l0.8-12.9l6.7-1.1l-0.1,1.8l-4.8,0.8l-0.2,3.2l4.8-0.8l-0.1,1.8l-4.8,0.8l-0.3,4.2
		l4.8-0.8l-0.1,1.9L501.5,860.9z"/>
</g>
<g id="g126" transform="translate(316.4629,76.4951)">
	<path id="path128" class="st17" d="M513,810.8l-13.5,2.3l7.2-70.8l13.5-2.3L513,810.8z"/>
</g>
<g id="g130" transform="translate(306.4521,170.2881)">
	<path id="path132" class="st17" d="M504.8,652.7c-1.2-1.1-2.7-1.5-4.7-1.2l-74,12.6l-1.4,13.9l13.5-2.3l0,0l53.8-9.2l-1.5,14.8
		l-53.8,9.2l0,0l-13.5,2.3L419,735l13.5-2.3l2.9-28.3l60.5-10.3c1.9-0.3,3.6-1.3,5-2.8c1.4-1.6,2.3-3.4,2.5-5.3l2.9-28.3
		C506.4,655.5,506,653.9,504.8,652.7"/>
</g>
<g id="g134" transform="translate(156.1196,82.541)">
	<path id="path136" class="st17" d="M560.7,819.6c-0.3,2.8-2.4,5.1-5.2,5.5L486.1,837c-1.9,0.3-3.4-0.1-4.6-1.2
		c-1.1-1.1-1.6-2.7-1.4-4.7l6.5-63.9l13.5-2.3l-5.8,57l53.9-9.2l5.8-57l13.5-2.3L560.7,819.6z"/>
</g>
<g id="g138" transform="translate(376.5859,173.1689)">
	<path id="path140" class="st18" d="M483.3,639.5l22.8,31l-30,40L483.3,639.5z"/>
</g>
<g id="g142" transform="translate(359.4717,173.1689)">
	<path id="path144" class="st19" d="M488.5,641.5l22.8,31l-30,40L488.5,641.5z"/>
</g>
<g>
	<rect x="1804.8" y="880.1" width="7.1" height="17.6"/>
	<rect x="1818.9" y="880.1" width="7.1" height="17.6"/>
	<rect x="1804.8" y="904.8" width="7.1" height="7.1"/>
	<rect x="1818.9" y="904.8" width="7.1" height="7.1"/>
	<rect x="1780.1" y="918.9" width="7.1" height="7.1"/>
	<rect x="1762.5" y="989.5" width="7.1" height="7.1"/>
	<rect x="1818.9" y="918.9" width="7.1" height="7.1"/>
	<rect x="1804.8" y="933.1" width="7.1" height="7.1"/>
	<rect x="1818.9" y="933.1" width="7.1" height="7.1"/>
	<path d="M1677.8,806h10.6V799h-14.1c-1.9,0-3.5,1.6-3.5,3.5v14.1h7.1V806z"/>
	<path d="M1893.1,799h-14.1v7.1h10.6v10.6h7.1v-14.1C1896.6,800.5,1895,799,1893.1,799z"/>
	<path d="M1677.8,1007.2h-7.1v14.1c0,1.9,1.6,3.5,3.5,3.5h14.1v-7.1h-10.6V1007.2z"/>
	<path d="M1889.5,1017.8h-10.6v7.1h14.1c1.9,0,3.5-1.6,3.5-3.5v-14.1h-7.1V1017.8z"/>
	<path d="M1684.8,816.6v42.3c0,1.9,1.6,3.5,3.5,3.5h42.3c1.9,0,3.5-1.6,3.5-3.5v-42.3c0-1.9-1.6-3.5-3.5-3.5h-42.3
		C1686.4,813.1,1684.8,814.6,1684.8,816.6z M1691.9,820.1h35.3v35.3h-35.3V820.1z"/>
	<path d="M1716.6,827.2h-14.1c-1.9,0-3.5,1.6-3.5,3.5v14.1c0,1.9,1.6,3.5,3.5,3.5h14.1c1.9,0,3.5-1.6,3.5-3.5v-14.1
		C1720.1,828.8,1718.6,827.2,1716.6,827.2z M1713.1,841.3h-7.1v-7.1h7.1V841.3z"/>
	<path d="M1836.6,862.5h42.3c1.9,0,3.5-1.6,3.5-3.5v-42.3c0-1.9-1.6-3.5-3.5-3.5h-42.3c-1.9,0-3.5,1.6-3.5,3.5v42.3
		C1833.1,860.9,1834.6,862.5,1836.6,862.5z M1840.1,820.1h35.3v35.3h-35.3V820.1z"/>
	<path d="M1864.8,827.2h-14.1c-1.9,0-3.5,1.6-3.5,3.5v14.1c0,1.9,1.6,3.5,3.5,3.5h14.1c1.9,0,3.5-1.6,3.5-3.5v-14.1
		C1868.4,828.8,1866.8,827.2,1864.8,827.2z M1861.3,841.3h-7.1v-7.1h7.1V841.3z"/>
	<path d="M1730.7,961.3h-42.3c-1.9,0-3.5,1.6-3.5,3.5v42.3c0,1.9,1.6,3.5,3.5,3.5h42.3c1.9,0,3.5-1.6,3.5-3.5v-42.3
		C1734.2,962.9,1732.7,961.3,1730.7,961.3z M1727.2,1003.6h-35.3v-35.3h35.3V1003.6z"/>
	<path d="M1702.5,996.6h14.1c1.9,0,3.5-1.6,3.5-3.5v-14.1c0-1.9-1.6-3.5-3.5-3.5h-14.1c-1.9,0-3.5,1.6-3.5,3.5v14.1
		C1699,995,1700.5,996.6,1702.5,996.6z M1706,982.5h7.1v7.1h-7.1V982.5z"/>
	<path d="M1826,866h-24.7v-42.3h-7.1v45.9c0,1.9,1.6,3.5,3.5,3.5h28.2V866z"/>
	<rect x="1748.4" y="841.3" width="24.7" height="7.1"/>
	<rect x="1762.5" y="827.2" width="24.7" height="7.1"/>
	<rect x="1684.8" y="866" width="7.1" height="31.8"/>
	<path d="M1734.2,887.2H1699v7.1h31.8v14.1h7.1v-17.6C1737.8,888.8,1736.2,887.2,1734.2,887.2z"/>
	<rect x="1702.5" y="869.5" width="7.1" height="7.1"/>
	<rect x="1744.8" y="862.5" width="7.1" height="28.2"/>
	<rect x="1744.8" y="897.8" width="31.8" height="7.1"/>
	<path d="M1886,901.3h-7.1v35.3h-10.6v7.1h14.1c1.9,0,3.5-1.6,3.5-3.5V901.3z"/>
	<rect x="1762.5" y="862.5" width="7.1" height="7.1"/>
	<rect x="1684.8" y="915.4" width="7.1" height="28.2"/>
	<rect x="1684.8" y="947.2" width="31.8" height="7.1"/>
	<path d="M1847.2,897.8h7.1v-14.1c0-1.9-1.6-3.5-3.5-3.5h-17.6v7.1h14.1V897.8z"/>
	<rect x="1702.5" y="915.4" width="7.1" height="7.1"/>
	<rect x="1741.3" y="911.9" width="7.1" height="28.2"/>
	<rect x="1741.3" y="947.2" width="31.8" height="7.1"/>
	<rect x="1699" y="933.1" width="31.8" height="7.1"/>
	<rect x="1744.8" y="982.5" width="7.1" height="14.1"/>
	<rect x="1741.3" y="968.4" width="31.8" height="7.1"/>
	<path d="M1797.8,954.2v-17.6c0-1.9-1.6-3.5-3.5-3.5H1759v7.1h31.8v14.1H1797.8z"/>
	<rect x="1762.5" y="911.9" width="7.1" height="7.1"/>
	<rect x="1723.7" y="918.9" width="7.1" height="7.1"/>
	<rect x="1878.9" y="986" width="7.1" height="24.7"/>
	<rect x="1861.3" y="1003.6" width="10.6" height="7.1"/>
	<rect x="1861.3" y="982.5" width="7.1" height="14.1"/>
	<path d="M1886,954.2c0-1.9-1.6-3.5-3.5-3.5h-38.8v7.1h35.3v21.2h7.1V954.2z"/>
	<path d="M1840.1,996.6v-17.6c0-1.9-1.6-3.5-3.5-3.5h-38.8v7.1h35.3v14.1H1840.1z"/>
	<rect x="1847.2" y="964.8" width="24.7" height="7.1"/>
	<rect x="1741.3" y="1003.6" width="24.7" height="7.1"/>
	<rect x="1776.6" y="978.9" width="7.1" height="31.8"/>
	<rect x="1783.7" y="961.3" width="14.1" height="7.1"/>
	<path d="M1836.6,926h17.6v-7.1h-14.1v-21.2h-7.1v24.7C1833.1,924.4,1834.6,926,1836.6,926z"/>
	<rect x="1847.2" y="904.8" width="17.6" height="7.1"/>
	<rect x="1861.3" y="869.5" width="10.6" height="7.1"/>
	<rect x="1878.9" y="869.5" width="7.1" height="17.6"/>
	<rect x="1861.3" y="887.2" width="7.1" height="7.1"/>
	<path d="M1808.4,858.9h14.1c1.9,0,3.5-1.6,3.5-3.5v-45.9h-7.1v42.3h-10.6V858.9z"/>
	<path d="M1755.4,816.6h52.9v-7.1h-56.5c-1.9,0-3.5,1.6-3.5,3.5v17.6h7.1V816.6z"/>
	<path d="M1759,883.7h24.7c1.9,0,3.5-1.6,3.5-3.5v-28.2h-7.1v24.7H1759V883.7z"/>
	<rect x="1790.7" y="880.1" width="7.1" height="14.1"/>
	<rect x="1797.8" y="989.5" width="24.7" height="7.1"/>
	<rect x="1797.8" y="1003.6" width="31.8" height="7.1"/>
	<path d="M1847.2,1003.6h-7.1v7.1h10.6c1.9,0,3.5-1.6,3.5-3.5v-28.2h-7.1V1003.6z"/>
	<rect x="1727.2" y="947.2" width="7.1" height="7.1"/>
	<rect x="1808.4" y="947.2" width="14.1" height="7.1"/>
	<rect x="1833.1" y="933.1" width="7.1" height="10.6"/>
	<rect x="1829.5" y="950.7" width="7.1" height="7.1"/>
	<rect x="1808.4" y="961.3" width="10.6" height="7.1"/>
	<rect x="1847.2" y="933.1" width="7.1" height="7.1"/>
	<rect x="1861.3" y="918.9" width="10.6" height="7.1"/>
	<rect x="1794.2" y="918.9" width="17.6" height="7.1"/>
	<rect x="1790.7" y="901.3" width="7.1" height="10.6"/>
</g>
<g>
	<path d="M1663.5,1085.1L1663.5,1085.1c0.5-0.6,1.1-1.3,1.6-1.9l5-5.9h3.7l-6.6,7l7.5,10.1h-3.8l-5.9-8.2l-1.6,1.8v6.4h-3.1v-25.1
		h3.1V1085.1z"/>
	<path d="M1687.1,1094.4l-0.2-2.2h-0.1c-1,1.3-2.8,2.5-5.2,2.5c-3.5,0-5.2-2.4-5.2-4.9c0-4.1,3.7-6.4,10.3-6.4v-0.4
		c0-1.4-0.4-4-3.9-4c-1.6,0-3.2,0.5-4.4,1.3l-0.7-2c1.4-0.9,3.5-1.5,5.6-1.5c5.2,0,6.5,3.6,6.5,7v6.4c0,1.5,0.1,2.9,0.3,4.1H1687.1z
		 M1686.6,1085.7c-3.4-0.1-7.2,0.5-7.2,3.8c0,2,1.3,3,2.9,3c2.2,0,3.6-1.4,4.1-2.9c0.1-0.3,0.2-0.7,0.2-1V1085.7z"/>
	<path d="M1694.6,1081.9c0-1.8,0-3.2-0.1-4.6h2.7l0.1,2.8h0.1c1-1.6,2.5-3.1,5.4-3.1c2.3,0,4.1,1.4,4.8,3.4h0.1
		c0.5-1,1.2-1.7,1.9-2.2c1-0.8,2.2-1.2,3.8-1.2c2.3,0,5.6,1.5,5.6,7.4v10.1h-3v-9.7c0-3.3-1.2-5.3-3.7-5.3c-1.8,0-3.1,1.3-3.7,2.8
		c-0.1,0.4-0.2,1-0.2,1.6v10.6h-3v-10.2c0-2.7-1.2-4.7-3.6-4.7c-1.9,0-3.4,1.6-3.8,3.1c-0.2,0.5-0.2,1-0.2,1.5v10.3h-3V1081.9z"/>
	<path d="M1733.5,1094.4l-0.2-2.2h-0.1c-1,1.3-2.8,2.5-5.2,2.5c-3.5,0-5.2-2.4-5.2-4.9c0-4.1,3.7-6.4,10.3-6.4v-0.4
		c0-1.4-0.4-4-3.9-4c-1.6,0-3.2,0.5-4.4,1.3l-0.7-2c1.4-0.9,3.5-1.5,5.6-1.5c5.2,0,6.5,3.6,6.5,7v6.4c0,1.5,0.1,2.9,0.3,4.1H1733.5z
		 M1733.1,1085.7c-3.4-0.1-7.2,0.5-7.2,3.8c0,2,1.3,3,2.9,3c2.2,0,3.6-1.4,4.1-2.9c0.1-0.3,0.2-0.7,0.2-1V1085.7z"/>
	<path d="M1741.1,1069.3h3.1v25.1h-3.1V1069.3z"/>
	<path d="M1765.3,1096.7c-1.9,1-3.9,1.4-6.3,1.4c-5.8,0-10.7-4.2-10.7-11c0-7.3,5-13.6,12.9-13.6c6.1,0,10.3,4.3,10.3,10.2
		c0,5.3-3,8.4-6.3,8.4c-1.4,0-2.7-1-2.6-3.1h-0.1c-1.2,2.1-2.9,3.1-5,3.1c-2,0-3.8-1.7-3.8-4.4c0-4.4,3.5-8.4,8.4-8.4
		c1.5,0,2.9,0.3,3.8,0.7l-1.2,6.4c-0.5,2.7-0.1,3.9,1.1,4c1.8,0,3.8-2.4,3.8-6.5c0-5.1-3.1-8.8-8.5-8.8c-5.8,0-10.6,4.6-10.6,11.7
		c0,5.9,3.8,9.5,9.1,9.5c2,0,3.9-0.4,5.3-1.2L1765.3,1096.7z M1763.4,1081.4c-0.4-0.1-1-0.2-1.8-0.2c-3.1,0-5.6,2.9-5.6,6.4
		c0,1.6,0.8,2.7,2.3,2.7c2,0,3.9-2.6,4.3-4.8L1763.4,1081.4z"/>
	<path d="M1775.4,1069.3h3.1v10.7h0.1c0.5-0.9,1.3-1.7,2.2-2.2c0.9-0.5,2-0.9,3.2-0.9c2.3,0,6,1.4,6,7.3v10.2h-3.1v-9.8
		c0-2.8-1-5.1-4-5.1c-2,0-3.6,1.4-4.2,3.1c-0.2,0.4-0.2,0.9-0.2,1.5v10.3h-3.1V1069.3z"/>
	<path d="M1809.8,1069.3v20.7c0,1.5,0,3.2,0.1,4.4h-2.8l-0.1-3h-0.1c-1,1.9-3,3.4-5.8,3.4c-4.1,0-7.3-3.5-7.3-8.7
		c0-5.7,3.5-9.2,7.7-9.2c2.6,0,4.4,1.2,5.2,2.6h0.1v-10.2H1809.8z M1806.7,1084.3c0-0.4,0-0.9-0.1-1.3c-0.5-2-2.2-3.6-4.5-3.6
		c-3.2,0-5.1,2.8-5.1,6.6c0,3.5,1.7,6.3,5,6.3c2.1,0,4-1.4,4.6-3.7c0.1-0.4,0.1-0.8,0.1-1.3V1084.3z"/>
	<path d="M1815.2,1094.4v-14.7h-2.4v-2.4h2.4v-0.8c0-2.4,0.5-4.6,2-6c1.2-1.1,2.7-1.6,4.2-1.6c1.1,0,2,0.2,2.6,0.5l-0.4,2.4
		c-0.5-0.2-1.1-0.4-2-0.4c-2.6,0-3.3,2.3-3.3,4.9v0.9h4.1v2.4h-4.1v14.7H1815.2z"/>
	<path d="M1836.9,1093.8c-0.8,0.4-2.6,1-4.9,1c-5.2,0-8.5-3.5-8.5-8.7c0-5.3,3.6-9.1,9.2-9.1c1.8,0,3.5,0.5,4.3,0.9l-0.7,2.4
		c-0.7-0.4-1.9-0.8-3.6-0.8c-3.9,0-6,2.9-6,6.5c0,4,2.5,6.4,5.9,6.4c1.8,0,2.9-0.5,3.8-0.8L1836.9,1093.8z"/>
	<path d="M1840.4,1094.4c0.1-1.2,0.1-2.9,0.1-4.4v-20.7h3.1v10.7h0.1c1.1-1.9,3.1-3.1,5.8-3.1c4.2,0,7.2,3.5,7.2,8.7
		c0,6.1-3.8,9.1-7.7,9.1c-2.5,0-4.4-1-5.7-3.2h-0.1l-0.1,2.8H1840.4z M1843.7,1087.5c0,0.4,0.1,0.8,0.1,1.1c0.6,2.2,2.4,3.6,4.7,3.6
		c3.2,0,5.2-2.6,5.2-6.6c0-3.4-1.8-6.4-5.1-6.4c-2.1,0-4.1,1.4-4.7,3.8c-0.1,0.4-0.2,0.8-0.2,1.3V1087.5z"/>
	<path d="M1870.1,1094.4l-0.2-2.2h-0.1c-1,1.3-2.8,2.5-5.2,2.5c-3.5,0-5.2-2.4-5.2-4.9c0-4.1,3.7-6.4,10.3-6.4v-0.4
		c0-1.4-0.4-4-3.9-4c-1.6,0-3.2,0.5-4.4,1.3l-0.7-2c1.4-0.9,3.5-1.5,5.6-1.5c5.2,0,6.5,3.6,6.5,7v6.4c0,1.5,0.1,2.9,0.3,4.1H1870.1z
		 M1869.7,1085.7c-3.4-0.1-7.2,0.5-7.2,3.8c0,2,1.3,3,2.9,3c2.2,0,3.6-1.4,4.1-2.9c0.1-0.3,0.2-0.7,0.2-1V1085.7z"/>
	<path d="M1877.7,1081.9c0-1.8,0-3.2-0.1-4.6h2.8l0.2,2.8h0.1c0.8-1.6,2.8-3.2,5.6-3.2c2.4,0,6,1.4,6,7.3v10.2h-3.1v-9.8
		c0-2.8-1-5-4-5c-2,0-3.6,1.4-4.2,3.2c-0.1,0.4-0.2,0.9-0.2,1.4v10.3h-3.1V1081.9z"/>
	<path d="M1900.3,1085.1L1900.3,1085.1c0.5-0.6,1.1-1.3,1.6-1.9l5-5.9h3.7l-6.6,7l7.5,10.1h-3.8l-5.9-8.2l-1.6,1.8v6.4h-3.1v-25.1
		h3.1V1085.1z"/>
</g>
</svg>
